PathFileType	4	(X/Y/Z)	Walk5.trc
DataRate	CameraRate	NumFrames	NumMarkers	Units	OrigDataRate	OrigDataStartFrame	OrigNumFrames
200.000000	200.000000	7	57	mm	200.000000	236	539
Frame#	Times		RBHD		C7		RASI		RACR1		RUA1		RFA1		LFA1		RTH3		RTH2		RWRU		RCAR		RElbow		RBack		LTH2		RTH1		LElbowM		RTB3		RMT1		RTH4		RMT5		RLFC		RTB1		RTB4		LTH4		RTB2		LACR1		LElbow		LWRU		LTH3		CLAV		LTB1		LPSI		T10		RPSI		RWRR		LTH1		LBHD		LLFC		LTB3		LTB4		RToe		LCAL		RFHD		LTB2		LMMAL		LASI		LWRR		LLMAL		RElbowM		LMT1		LToe		RLMAL		RMMAL		LMT5		LUA1		LCAR		RCAL
			X1	Y1	Z1	X2	Y2	Z2	X3	Y3	Z3	X4	Y4	Z4	X5	Y5	Z5	X6	Y6	Z6	X7	Y7	Z7	X8	Y8	Z8	X9	Y9	Z9	X10	Y10	Z10	X11	Y11	Z11	X12	Y12	Z12	X13	Y13	Z13	X14	Y14	Z14	X15	Y15	Z15	X16	Y16	Z16	X17	Y17	Z17	X18	Y18	Z18	X19	Y19	Z19	X20	Y20	Z20	X21	Y21	Z21	X22	Y22	Z22	X23	Y23	Z23	X24	Y24	Z24	X25	Y25	Z25	X26	Y26	Z26	X27	Y27	Z27	X28	Y28	Z28	X29	Y29	Z29	X30	Y30	Z30	X31	Y31	Z31	X32	Y32	Z32	X33	Y33	Z33	X34	Y34	Z34	X35	Y35	Z35	X36	Y36	Z36	X37	Y37	Z37	X38	Y38	Z38	X39	Y39	Z39	X40	Y40	Z40	X41	Y41	Z41	X42	Y42	Z42	X43	Y43	Z43	X44	Y44	Z44	X45	Y45	Z45	X46	Y46	Z46	X47	Y47	Z47	X48	Y48	Z48	X49	Y49	Z49	X50	Y50	Z50	X51	Y51	Z51	X52	Y52	Z52	X53	Y53	Z53	X54	Y54	Z54	X55	Y55	Z55	X56	Y56	Z56	X57	Y57	Z57

236	1.18	-607.45	1549.9	367.69	-637.97	1418.6	288.13	-553.01	917.46	410.39	-584.68	1363.8	440.44	-669.55	1182.5	509.72	-729.14	921.13	551.97	-524.48	993.01	-42.032	-479.57	551.73	432.8	-464.97	668.66	416.05	-759.36	793.26	542.6	-726.42	734.2	554.33	-741.93	1068.5	526.79	-719.25	1328.2	370.99	-591.59	622.77	117.74	-562.4	719.44	463.11	-679.62	1090.9	50.96	-325.25	205.77	335.92	-190.07	93.592	297.68	-520.24	634.93	452.47	-213.96	77.679	377.5	-439.42	461.67	413.2	-375.39	389.31	335.46	-348.77	300.57	337.28	-655.74	638.35	76.825	-365.18	292.79	408.4	-585.98	1413.6	116.11	-648.29	1099.6	-24.113	-505.64	875.08	-35.089	-680.94	552.94	90.107	-505.51	1332.8	279.68	-731.63	341.26	166.72	-731.81	940.79	207.59	-739.74	1112.2	259.95	-734.05	938.15	312.84	-685.83	782.08	518.93	-627.19	731.7	69.735	-607.62	1554	229.31	-731.68	441.96	105.7	-827.73	182.92	179.58	-782.17	262.9	174.14	-152.88	119.59	326.93	-999.99	66.98	196.6	-424.09	1581.9	334.49	-805.08	272.31	106.38	-909.12	105.58	239.92	-560.58	926.94	105.29	-445.97	913.41	5.7151	-940.13	97.81	151.55	-754.99	1048	432.1	-793.04	32.253	226.43	-745.82	24.973	213.98	-348.17	86.81	373.34	-325.23	111.65	288.54	-821.61	32.139	136.51	-617.29	1227.4	5.9427	-422.59	866.03	-41.518	-373.22	21.828	328.96
237	1.185	-600.95	1549	368.68	-631.58	1417.7	288.88	-545.56	916.45	411.18	-578.28	1362.7	440.96	-663.01	1181.1	510.24	-722.85	919.84	552.19	-516.64	992.77	-41.181	-470.72	551.27	433.27	-455.99	668.4	416.5	-753.34	792.05	542.64	-720.33	732.6	554.6	-735.62	1066.9	527.3	-712.87	1326.8	371.67	-585.14	621.88	118.06	-554.2	719.12	463.8	-672.22	1089.8	51.678	-320.16	203.48	335.75	-186.21	90.261	297.54	-511.85	634.64	452.98	-210.52	74.753	377.24	-431.39	460.52	413.41	-368.38	387.76	335.55	-342.5	298.58	337.18	-649.38	637.62	77.334	-359.15	291.03	408.34	-579.63	1412.7	116.99	-640.99	1098.8	-23.658	-496.75	875.19	-34.406	-675.01	552.44	90.502	-498.84	1332.1	280.28	-727.16	340.41	166.72	-724.49	939.87	208.14	-732.54	1111	260.35	-726.48	937.13	313.71	-679.87	780.61	519.24	-620.53	731.1	70.172	-601.13	1553.2	230.45	-725.89	441.66	106.16	-825.39	183.57	179.56	-778.7	262.92	174.3	-148.41	115.72	326.49	-999.03	69.949	196.26	-417.42	1580.7	335.63	-801.22	272.6	106.51	-907.77	107.22	239.64	-553.11	925.94	105.71	-437.38	913.71	6.4886	-938.76	99.913	151.35	-748.59	1046.8	432.3	-792.98	32.276	226.38	-745.86	24.915	214.12	-344.43	84.92	372.99	-321.07	109.51	288.29	-821.35	32.253	136.45	-610.25	1226.7	6.7636	-413.96	866.6	-41.048	-370.53	21.552	329.03
238	1.19	-594.37	1547.9	369.79	-625.15	1416.7	289.61	-537.67	915.42	411.88	-571.85	1361.6	441.57	-656.54	1179.8	510.96	-716.69	918.63	552.59	-508.68	992.41	-40.411	-462.23	550.68	433.55	-447.08	668.14	417.19	-747.35	790.71	542.75	-714.4	731.21	554.73	-729.22	1065.5	527.64	-706.52	1325.4	372.27	-578.55	621	118.31	-545.28	718.63	464.15	-664.71	1088.8	52.287	-314.94	201.17	335.28	-182.54	86.682	297.12	-503.1	634.09	453.33	-207.52	71.221	376.93	-423.33	459.49	413.63	-361.37	385.86	335.7	-336.35	296.46	337	-642.97	636.96	77.786	-353.18	289.17	407.92	-573.14	1411.9	117.9	-633.77	1097.8	-23.15	-488.34	874.94	-33.759	-668.65	551.96	90.712	-492.06	1331.3	281.28	-722.02	339.82	166.97	-717.16	938.82	208.87	-725.39	1109.6	260.95	-718.63	936.13	314.24	-673.83	779.17	519.63	-613.81	730.11	70.693	-594.75	1552.5	231.59	-719.98	441.09	106.36	-822.77	183.92	179.6	-774.9	262.84	174.37	-144.41	111.8	325.71	-998.01	73.109	195.86	-411.11	1579.6	336.84	-797.38	273.02	106.86	-906.34	108.84	239.35	-545.54	924.98	106.24	-429.15	914.02	7.0921	-937.28	102.05	151.1	-741.84	1045.7	432.54	-792.85	32.281	226.39	-745.91	24.856	214.28	-341.2	83.025	372.86	-317.34	106.8	287.79	-821.12	32.36	136.37	-603.29	1225.8	7.4277	-405.11	867.03	-40.303	-368.98	21.262	329.21
239	1.195	-587.74	1546.9	371.04	-618.55	1415.5	290.56	-529.96	914.75	412.53	-565.57	1360.5	442.6	-650.16	1178.7	511.6	-710.24	917.34	552.86	-500.8	992.11	-39.642	-454.03	550.27	433.48	-438.31	667.51	417.98	-741.18	789.39	543.16	-708.54	729.96	554.88	-722.48	1064.4	528.14	-699.93	1324.2	372.88	-571.82	620.21	118.53	-536.94	718.28	464.06	-657.45	1087.8	52.793	-310.36	198.76	334.75	-179.65	81.983	297.29	-494.63	633.78	453.44	-204.86	66.204	376.15	-415.19	458.12	414.11	-354.5	384.01	335.49	-330.36	294.14	336.7	-636.33	636.38	78.27	-347.15	286.99	407.67	-566.56	1411	118.96	-626.15	1097	-22.54	-480.03	874.69	-32.815	-662	551.35	91.214	-485.52	1330.4	282.05	-717.14	338.86	166.96	-709.7	937.89	209.62	-717.87	1108.3	261.78	-710.94	935.19	315.12	-667.75	777.71	520.01	-606.92	729.34	71.53	-588.2	1551.6	232.79	-713.77	440.49	106.54	-820.36	184.52	179.61	-770.97	262.81	174.45	-140.78	105.9	324.5	-996.92	76.364	195.52	-404.61	1578.7	337.84	-793.46	273.27	106.92	-904.63	110.65	239	-538	924.08	106.83	-420.98	914.13	7.9818	-935.62	104.37	150.84	-735.02	1044.3	432.96	-792.81	32.325	226.28	-745.99	24.863	214.36	-338.05	80.633	372.44	-314.05	104.38	287.09	-820.83	32.455	136.41	-596.51	1225.1	8.128	-396.75	867.2	-39.49	-368.53	21.613	328.78
240	1.2	-581.26	1546.1	372.07	-612.09	1414.5	291.39	-522.19	914.03	413.16	-559.45	1359.8	443.56	-643.68	1177.5	512.27	-703.61	915.89	553.03	-493.05	991.95	-38.869	-446.07	549.85	433.18	-429.54	667.19	418.99	-734.87	788.16	543.15	-702.26	728.66	555.15	-715.76	1063.2	528.42	-693.3	1323.1	373.71	-564.73	619.47	118.81	-528.62	718.13	463.73	-650.3	1086.7	53.434	-305.08	196.95	333.74	-176.47	74.828	297.52	-486.48	633.47	453.63	-202.85	59.385	375.61	-407.59	457.26	414.55	-347.42	382.41	335.36	-324.37	292.29	336.1	-629.36	635.77	78.775	-341.47	285.1	407.04	-560.07	1410.5	119.79	-618.81	1096.3	-21.881	-471.75	874.53	-31.838	-655.12	550.51	91.646	-478.64	1329.8	283.17	-712.03	338.1	167.31	-702.07	936.93	210.33	-710.69	1107.3	262.55	-703.57	934.46	315.68	-661.17	776.55	520.19	-600.02	728.38	72.151	-581.92	1551.2	233.74	-707.4	440.09	106.79	-817.5	185.51	179.5	-766.97	262.83	174.6	-137.28	97.151	322.87	-995.69	79.892	195.13	-397.87	1578	339.06	-789.01	273.71	106.84	-902.96	112.5	238.68	-530.36	922.94	107.5	-412.89	914.29	9.0128	-933.96	106.77	150.34	-728.05	1043	433.35	-792.74	32.337	226.18	-746.02	24.839	214.49	-334.71	78.725	371.23	-310.9	102.8	286.36	-820.54	32.499	136.49	-589.68	1224.5	8.9609	-388.55	867.46	-38.482	-368.15	23.017	328.08
241	1.205	-574.84	1545.4	373.17	-605.57	1413.7	292.46	-514.18	913.44	413.46	-552.91	1358.8	445.31	-636.89	1176.3	512.9	-696.95	914.63	553.43	-485.6	991.62	-38.195	-438.53	549.5	432.74	-421.24	666.74	420.16	-728.35	786.8	543.43	-695.83	727.47	555.43	-708.92	1061.7	528.75	-686.82	1321.8	374.37	-557.68	618.5	119.06	-520.6	718.26	463.52	-643.2	1085.8	54.21	-299.98	195.64	332.77	-173.3	65.898	296.3	-478.68	633.3	453.6	-201.45	52.7	375.43	-400.28	456.8	415.25	-340.41	381.53	335.33	-318.22	291.42	335.71	-622.48	634.9	79.161	-335.54	283.95	406.29	-553.67	1409.8	120.71	-611.73	1095.5	-21.243	-463.59	874.35	-30.846	-648.45	549.72	92.363	-472	1329	284.15	-706.36	337.12	167.46	-694.52	936.3	211.1	-703.53	1106.4	263.49	-696.21	933.72	316.46	-654.1	774.79	520.56	-592.94	727.66	73.003	-575.29	1550.6	235.12	-700.87	439.32	107.48	-814.35	186.38	179.31	-762.65	262.75	174.58	-133.15	85.644	323.22	-994.37	83.59	194.51	-391.41	1577.3	339.91	-784.52	274.18	106.7	-900.93	114.5	238.13	-522.69	922.07	108.05	-405.11	914.31	9.9333	-932.02	109.31	149.8	-721.16	1041.9	433.91	-792.67	32.364	226.11	-745.98	24.721	214.68	-331.53	77.922	370.14	-307.56	101.81	285.84	-820.02	32.592	136.58	-582.84	1223.6	9.8942	-380.44	867.74	-37.476	-367.3	24.382	327.65
242	1.21	-568.17	1545.1	374.48	-599.13	1413.1	293.52	-506.91	912.84	413.57	-546.46	1357.9	446.12	-630.14	1175.3	513.58	-690.25	913.5	553.97	-478.08	991.29	-37.23	-431.38	549.5	432.47	-412.75	666.53	421.39	-721.77	785.67	543.65	-689.31	726.15	555.72	-701.92	1060.2	529.22	-679.93	1320.9	375.19	-550.43	617.56	119.45	-512.45	718.38	463.42	-635.6	1085	55.125	-295.12	195.08	332.56	-170.65	58.501	294.9	-471.45	633.16	453.69	-199.74	48.452	375.41	-392.92	456.97	416.11	-333.16	381.3	335.49	-311.82	291.08	335.44	-615.17	634.14	79.904	-328.29	283.82	405.81	-547.08	1409.3	121.83	-604.71	1094.9	-20.381	-455.8	874.26	-29.907	-641.34	549.01	92.897	-465.14	1328.6	285.31	-700.6	336.22	168.22	-686.87	935.64	211.72	-696.37	1105.7	264.15	-688.91	933.18	317.28	-647.8	773.72	520.85	-585.7	726.81	73.833	-568.85	1549.8	236.53	-693.79	438.79	108.31	-811.17	187.1	179.22	-758.03	262.67	174.51	-129.1	75.704	325.01	-992.69	87.553	193.59	-384.71	1576.9	341.2	-779.67	274.61	106.98	-898.89	116.51	237.64	-514.85	921.27	108.57	-397.56	914.31	10.821	-929.88	112	149.2	-714.28	1040.9	434.42	-792.59	32.391	226.09	-746.13	24.656	214.9	-328.46	78.76	370.22	-303.95	100.98	285.6	-819.16	32.775	136.56	-576.21	1223.1	10.844	-372.54	867.79	-36.695	-366.2	25.877	327.72
